<svg width="368" height="298" viewBox="0 0 368 298" fill="none" xmlns="http://www.w3.org/2000/svg">
<g clip-path="url(#clip0)">
<path d="M348.386 195.172L354.99 188.568C355.743 187.815 356.085 186.754 355.914 185.727C349.105 143.261 329.292 102.471 296.578 69.7574C263.83 37.0093 223.074 17.2304 180.573 10.4207C179.547 10.2496 178.486 10.5918 177.733 11.3446L72.5422 116.536C71.4472 117.596 70.8654 119.068 70.8654 120.608V292.219C70.8654 294.032 72.3027 295.47 74.1163 295.47H245.727C247.267 295.47 248.704 294.854 249.8 293.793L348.386 195.172Z" fill="#FF788F" stroke="white" stroke-width="2" stroke-miterlimit="10" stroke-linecap="round" stroke-linejoin="round"/>
<path d="M104.503 61.271L242.955 164.727L248.704 171.39L164.387 233.806L20.015 103.303V96.332L104.503 61.271Z" fill="white"/>
<path d="M232.039 9.59975V44.3668C232.039 45.9409 231.047 47.3097 229.61 47.8572L217.188 52.3742L211.234 65.1039C211.131 65.3434 210.789 65.4118 210.618 65.2065L204.356 58.1573L203.74 57.4729C203.706 57.4387 203.671 57.4045 203.671 57.4045L203.603 57.336C203.569 57.3018 203.569 57.3018 203.535 57.2676L203.5 57.1992C203.466 57.1649 203.466 57.1649 203.432 57.1307L203.398 57.0965L190.805 61.4424C189.197 61.9899 187.52 60.7922 187.52 59.1154V53.8456L189.539 53.127C191.421 52.4426 192.653 50.6632 192.653 48.6785V19.9683L229.028 7.4097C230.5 6.93062 232.039 8.02565 232.039 9.59975ZM219.618 43.7509C220.302 43.5113 220.781 42.7585 220.713 42.1083C220.028 37.3518 215.751 34.9907 210.55 36.8043C205.348 38.6179 201.071 43.9562 200.386 49.1918C200.284 49.8762 200.797 50.321 201.481 50.0815L219.618 43.7509ZM210.55 34.1694C213.424 33.177 215.751 30.0288 215.751 27.1544C215.751 24.2799 213.424 22.7743 210.55 23.7666C207.675 24.759 205.348 27.9072 205.348 30.7817C205.348 33.6561 207.675 35.1618 210.55 34.1694Z" fill="white"/>
<path d="M317.65 225.81L305.577 238.3L285.388 258.489L252.956 290.484C241.291 281.763 228.679 274.307 215.443 268.266C228.925 266.418 241.86 260.532 252.366 251.874C265.814 240.787 275.396 225.286 280.289 208.552C284.224 195.173 285.217 181.006 283.848 167.113C295.379 184.707 305.957 203.946 317.65 225.81Z" fill="black"/>
<path d="M125.069 208.86C136.738 219.674 147.072 229.221 154.601 236.133C159.357 240.479 168.767 244.962 180.368 236.133L248.294 189.081C248.294 189.081 255.274 185.283 255.274 177.994C255.274 170.705 250.142 166.496 245.727 163.314C243.606 161.774 219.891 143.911 192.345 123.106L192.447 122.969C193.303 122.866 194.193 122.729 195.048 122.661C191.079 119.616 186.527 114.688 183.721 110.445C182.318 111.471 180.813 112.395 179.17 113.148C177.836 113.798 176.467 114.311 175.064 114.756C172.018 115.749 168.939 116.33 166.304 116.57C165.825 116.604 165.311 116.638 164.798 116.673C160.384 116.912 155.353 116.536 152.274 114.004C151.418 113.285 150.734 112.429 150.255 111.334C148.544 107.536 150.357 103.156 154.258 99.0153C155.08 98.1256 156.038 97.2702 157.03 96.4147C167.364 87.7571 186.083 81.187 198.333 85.3275C212.74 90.1867 225.093 99.6313 236.248 109.966C255.548 127.897 270.331 146.375 283.882 167.112C285.251 181.005 284.258 195.172 280.323 208.552C275.43 225.286 265.848 240.787 252.4 251.874C241.86 260.566 228.96 266.417 215.477 268.265C206.683 264.262 197.649 260.874 188.375 258.17C171.231 253.174 153.437 250.403 136.841 243.764C121.818 237.776 106.556 228.81 100.089 214.438C99.4044 212.966 98.8226 211.427 98.3778 209.818C95.914 201.503 95.9824 192.469 98.4804 184.188C99.1306 182.032 99.9177 179.91 100.91 177.891C101.834 175.975 103.99 172.964 106.659 171.8C107.378 171.492 108.13 171.287 108.917 171.287C109.294 171.287 109.67 171.321 110.047 171.39C114.256 172.211 116.035 177.652 116.651 179.431C116.856 180.081 117.096 180.732 117.301 181.382C120.141 190.45 121.476 200.134 125.069 208.86Z" fill="#FF788F"/>
<path d="M155.49 104.901C154.498 107.673 154.806 110.889 156.38 113.387C157.167 114.688 158.296 115.783 159.597 116.57C156.791 116.296 154.156 115.543 152.274 113.969C151.418 113.251 150.734 112.395 150.255 111.3C148.544 107.502 150.358 103.122 154.259 98.981C155.08 98.0913 156.038 97.2358 157.03 96.3803C164.935 89.7417 177.836 84.335 188.923 84.027C178.794 86.4224 169.178 91.1789 161.171 97.8175C158.844 99.8023 156.551 102.027 155.49 104.901Z" fill="white"/>
<path d="M99.7808 193.119C99.4386 203.556 102.073 214.062 107.378 223.061C108.746 225.354 110.252 227.578 111.929 229.666C106.898 225.388 102.724 220.358 100.055 214.438C99.3701 212.967 98.7884 211.427 98.3435 209.818C95.8797 201.503 95.9482 192.469 98.4462 184.188C99.0964 182.032 99.8834 179.91 100.876 177.891C101.8 175.975 103.956 172.964 106.625 171.8C107.343 171.492 108.096 171.287 108.883 171.287C109.26 171.287 109.636 171.321 110.012 171.39C112.134 171.8 113.64 173.375 114.7 175.085C112.716 174.641 110.56 174.88 108.678 175.667C105.53 177.036 103.134 179.842 101.766 183.024C100.363 186.173 99.8834 189.663 99.7808 193.119Z" fill="white"/>
<path d="M245.693 163.28C250.108 166.462 255.24 170.671 255.24 177.96C255.24 185.249 248.26 189.047 248.26 189.047L180.368 236.133C168.768 244.962 159.357 240.479 154.601 236.133C147.072 229.221 136.738 219.639 125.069 208.86C121.476 200.134 120.107 190.45 117.233 181.382L149.091 210.126L162.779 222.445C165.38 224.875 169.349 225.149 172.258 223.13L242.682 173.99C245.454 172.074 245.522 168.002 242.853 165.983L231.834 157.633L190.976 126.767L175.098 114.756C176.467 114.311 177.87 113.764 179.205 113.148C183.653 116.502 188.068 119.821 192.379 123.106C219.857 143.877 243.572 161.74 245.693 163.28Z" fill="black"/>
<path d="M220.713 42.1423C220.816 42.7925 220.302 43.5453 219.618 43.7848L201.482 50.1155C200.797 50.355 200.318 49.9444 200.387 49.2257C201.071 43.9902 205.348 38.6519 210.55 36.8383C215.751 34.9904 220.029 37.3858 220.713 42.1423Z" fill="#FF788F"/>
<path d="M215.751 27.154C215.751 30.0285 213.424 33.1767 210.55 34.169C207.675 35.1614 205.348 33.6557 205.348 30.7813C205.348 27.9069 207.675 24.7587 210.55 23.7663C213.424 22.7739 215.751 24.2796 215.751 27.154Z" fill="#FF788F"/>
<path d="M205.382 144.219C213.664 150.55 214.519 159.447 206.957 164.135C199.223 168.926 185.912 167.283 177.596 160.473C169.452 153.835 169.452 144.972 177.22 140.66C184.851 136.451 197.307 138.025 205.382 144.219ZM202.884 160.918C205.93 159.071 206.238 155.58 204.253 151.748C202.919 153.801 200.934 155.683 198.265 157.291C195.561 158.899 192.516 160.029 189.265 160.713C194.706 162.561 199.839 162.8 202.884 160.918ZM201.687 148.12C202.132 146.991 202.029 145.691 201.071 144.493C200.113 143.33 198.196 142.406 196.485 142.474C195.014 142.542 193.645 143.466 193.782 144.527C192.311 143.843 190.394 143.809 189.299 144.425C188.204 145.075 187.965 146.341 188.786 147.436C189.607 148.531 191.25 149.284 192.858 149.797C194.946 150.481 197.136 150.926 199.291 151.063C200.215 150.173 201.242 149.249 201.687 148.12ZM189.094 157.12C189.197 155.614 188.889 154.04 188.204 152.535C187.691 151.371 186.835 150.173 185.364 149.455C183.893 148.736 181.942 148.668 180.813 149.318C179.649 149.968 179.376 151.268 180.163 152.398C178.589 152.158 176.98 152.945 176.604 153.938C176.125 155.101 177.254 156.607 178.862 157.462C180.505 158.283 182.49 158.523 184.269 158.386C186.014 158.215 187.588 157.633 189.094 157.12Z" fill="#FF788F"/>
<path d="M192.687 19.9681V48.6783C192.687 50.6631 191.455 52.4425 189.573 53.1269L187.554 53.8455V24.8615C187.554 22.9795 188.752 21.3027 190.531 20.6867L192.687 19.9681Z" fill="#FF788F"/>
<path d="M154.738 37.3174C154.567 34.3403 152.616 32.8004 150.221 33.8613C147.723 34.9563 145.704 38.4809 145.704 41.6975C145.704 41.8002 145.704 41.9028 145.704 42.0055C145.909 51.1421 154.293 53.5375 154.738 53.6744C155.182 53.1611 163.6 43.4085 163.772 34.135C163.772 34.0323 163.772 33.9297 163.772 33.827C163.772 30.6104 161.753 28.8652 159.22 29.9602C156.859 30.9526 154.909 34.2034 154.738 37.3174ZM192.687 4.43244V19.9681L190.531 20.7209C188.752 21.3369 187.554 23.0137 187.554 24.8957V53.8797L173.764 58.91L166.167 75.13C166.03 75.438 165.585 75.5064 165.38 75.2327L157.441 66.2672L156.688 65.4117C156.654 65.3775 156.62 65.3432 156.585 65.309L156.517 65.2064C156.483 65.1721 156.483 65.1379 156.449 65.1379L156.38 65.0695C156.346 65.0353 156.312 65.001 156.312 64.9668L156.277 64.9326L140.263 70.4762C138.21 71.1606 136.088 69.6549 136.088 67.4991V23.8691C136.088 21.4738 137.594 19.3522 139.852 18.5651L188.854 1.66066C190.737 1.01048 192.687 2.41349 192.687 4.43244ZM183.037 38.5835L179.855 34.6825L182.935 29.2074L181.018 29.9944L178.657 34.2377L177.733 34.6141V26.504L176.159 27.1542V41.3896L177.733 40.7394V36.4962L178.554 36.154L181.121 39.3706L183.037 38.5835ZM174.037 38.1387C174.037 36.4277 173.25 35.4696 172.053 35.4011C172.908 34.4772 173.524 33.1769 173.524 31.8423C173.524 29.4469 171.916 28.6941 169.965 29.4811C168.015 30.2682 166.406 32.2872 166.406 34.7167C166.406 36.0855 167.022 36.9068 167.878 37.1121C166.68 38.1729 165.893 39.747 165.893 41.458C165.893 44.1956 167.741 44.9484 169.965 44.0587C172.19 43.1347 174.037 40.8763 174.037 38.1387Z" fill="#FF788F"/>
<path d="M179.855 34.6483L183.037 38.5835L181.155 39.3364L178.554 36.1197L177.733 36.4619V40.7051L176.159 41.3553V27.12L177.733 26.504V34.5798L178.657 34.2034L181.018 29.9602L182.934 29.2074L179.855 34.6483Z" fill="black"/>
<path d="M172.053 35.4011C173.25 35.4696 174.037 36.4277 174.037 38.1387C174.037 40.8763 172.189 43.1347 169.965 44.0244C167.741 44.9142 165.893 44.1613 165.893 41.4238C165.893 39.7128 166.68 38.1387 167.878 37.0779C166.988 36.8726 166.406 36.0513 166.406 34.6825C166.406 32.2871 168.015 30.234 169.965 29.4469C171.916 28.6599 173.524 29.4127 173.524 31.8081C173.524 33.1769 172.908 34.4772 172.053 35.4011ZM169.965 42.0739C171.231 41.5606 172.292 40.2603 172.292 38.7204C172.292 37.1805 171.231 36.7357 169.965 37.249C168.699 37.7623 167.638 39.0626 167.638 40.6367C167.638 42.1424 168.733 42.5872 169.965 42.0739ZM169.965 35.4696C171.026 35.0589 171.847 33.8955 171.847 32.6293C171.847 31.3632 171.026 30.9184 169.965 31.3632C168.904 31.7739 168.083 32.9031 168.083 34.1692C168.117 35.4011 168.939 35.8802 169.965 35.4696Z" fill="black"/>
<path d="M165.482 118.281L163.258 122.285C160.692 122.661 156.825 122.73 152.479 122.388C147.278 121.977 142.726 121.121 140.126 120.163L137.696 116.057C139.133 117.391 144.951 118.726 151.829 119.274C158.57 119.787 164.079 119.342 165.482 118.281Z" fill="#FF788F"/>
<path d="M154.738 37.3175C154.909 34.2035 156.859 30.9526 159.255 29.8918C161.753 28.7968 163.806 30.542 163.806 33.7586C163.806 33.8613 163.806 33.964 163.806 34.0666C163.601 43.3401 155.217 53.0927 154.772 53.606C154.327 53.4691 145.909 51.0737 145.738 41.9371C145.738 41.8345 145.738 41.7318 145.738 41.6291C145.738 38.4125 147.757 34.8879 150.255 33.7929C152.616 32.8005 154.567 34.3404 154.738 37.3175Z" fill="white"/>
<path d="M163.258 122.284L162.06 124.406C159.562 124.646 156.277 124.646 152.616 124.372C148.202 124.03 144.198 123.345 141.494 122.558L140.091 120.163C142.692 121.121 147.278 122.011 152.445 122.387C156.825 122.729 160.692 122.661 163.258 122.284Z" fill="black"/>
<path d="M162.061 124.441L159.289 129.402C157.407 129.437 155.285 129.368 153.027 129.197C149.981 128.958 147.141 128.581 144.78 128.102L141.529 122.593C144.232 123.38 148.236 124.064 152.65 124.406C156.277 124.646 159.563 124.646 162.061 124.441Z" fill="#FF788F"/>
<path d="M159.289 129.403L158.194 131.353C156.688 131.353 155.045 131.285 153.334 131.148C150.665 130.942 148.167 130.634 146.011 130.224L144.745 128.102C147.106 128.581 149.947 128.992 152.992 129.197C155.285 129.368 157.407 129.437 159.289 129.403Z" fill="black"/>
<path d="M158.194 131.353L155.114 136.862C154.224 138.471 150.631 138.163 149.604 136.349L146.011 130.224C148.167 130.634 150.699 130.942 153.334 131.148C155.08 131.284 156.688 131.353 158.194 131.353Z" fill="#FF788F"/>
<path d="M157.064 96.4146C156.038 97.2701 155.114 98.1256 154.293 99.0153L152.582 97.715L118.602 72.0503L108.883 64.6931C107.378 63.5297 105.359 63.2559 103.579 63.9403L27.8172 93.0269C25.1138 94.0535 24.4294 97.5781 26.551 99.5286L34.3189 106.509L69.3597 138.128L79.386 147.162C75.793 150.242 72.7132 153.972 70.3521 158.078C56.8696 145.588 44.311 133.919 34.5926 124.885C34.5926 124.885 34.5926 124.885 34.5584 124.885C25.3876 116.365 18.7148 110.137 16.0799 107.707C13.8898 105.654 12.6921 102.711 13.0685 99.7339C13.1028 99.5628 13.137 99.3575 13.1712 99.1522C14.1978 94.4641 16.2167 92.0688 19.3992 90.3578C20.0835 89.9814 20.8022 89.6734 21.555 89.3996C42.3605 81.5976 100.568 60.2104 100.568 60.2104C106.077 58.6705 109.91 60.7921 112.271 62.5715C122.332 70.2025 138.928 82.7268 157.064 96.4146Z" fill="black"/>
<path d="M133.385 143.09C134.856 144.116 135.13 145.725 134.445 146.922C133.761 148.154 132.255 149.01 130.613 149.694C129.62 150.105 128.56 150.481 127.362 150.584C126.951 150.618 126.541 150.618 126.13 150.618C125.309 150.584 124.488 150.379 123.803 150.036C122.742 149.523 122.058 148.565 122.332 147.778V147.709C123.29 147.915 124.282 147.915 125.206 147.778C126.575 147.573 127.773 147.094 128.936 146.58C130.1 146.067 131.263 145.519 132.153 144.767C132.7 144.253 133.145 143.706 133.385 143.09Z" fill="#FF788F"/>
<path d="M133.384 143.09C133.145 143.706 132.7 144.254 132.118 144.733C131.229 145.451 130.099 146.033 128.902 146.546C127.772 147.06 126.575 147.539 125.172 147.744C124.248 147.881 123.221 147.881 122.297 147.676C121.818 147.573 121.373 147.436 120.963 147.231C119.697 146.615 118.91 145.486 119.389 144.596V144.527C120.586 144.801 121.887 144.835 123.05 144.63C124.487 144.391 125.754 143.911 126.951 143.364C128.183 142.816 129.381 142.2 130.236 141.379C130.818 140.832 131.194 140.147 131.297 139.463H131.331C132.632 140.01 133.419 141.071 133.487 142.064C133.556 142.44 133.487 142.782 133.384 143.09Z" fill="#FF788F"/>
<path d="M131.297 138.47C131.4 138.813 131.4 139.155 131.366 139.463C131.263 140.147 130.852 140.831 130.305 141.379C129.449 142.2 128.252 142.816 127.02 143.364C125.822 143.911 124.556 144.39 123.119 144.63C121.955 144.801 120.655 144.801 119.457 144.527C119.183 144.459 118.91 144.39 118.636 144.288C117.233 143.74 116.172 142.714 116.24 141.687L116.275 141.584C116.548 141.653 116.788 141.687 117.062 141.687C117.78 141.721 118.499 141.619 119.149 141.516C121.579 141.071 123.803 140.25 125.514 139.12C126.506 138.47 127.362 137.683 127.772 136.759C127.875 136.554 127.944 136.314 127.978 136.075L128.252 136.109C129.791 136.383 130.989 137.444 131.297 138.47Z" fill="#FF788F"/>
<path d="M101.081 143.912C100.671 142.885 100.5 141.824 100.602 140.798C100.773 138.573 102.039 136.281 100.602 134.193C99.9863 133.304 98.9597 132.551 98.2069 131.729C97.4883 130.874 97.1461 129.779 97.9674 129.094C98.5149 128.615 99.5072 128.444 100.465 128.513C101.424 128.581 102.313 128.889 103.135 129.231C106.659 130.703 109.157 133.372 109.465 136.11C109.499 136.315 109.739 136.589 110.081 136.76L111.758 136.725C114.564 135.117 117.644 133.748 120.963 132.688C121.853 132.414 122.777 132.14 123.803 132.174C125.275 132.243 126.712 132.961 127.43 133.885C127.978 134.57 128.149 135.357 128.012 136.11C127.978 136.349 127.909 136.554 127.807 136.794C127.396 137.718 126.541 138.505 125.548 139.155C123.803 140.284 121.579 141.106 119.183 141.55C118.499 141.687 117.815 141.79 117.096 141.722C116.822 141.722 116.583 141.687 116.309 141.619L116.275 141.722C116.206 142.748 117.267 143.809 118.67 144.322C118.944 144.425 119.218 144.493 119.491 144.562V144.63C119.012 145.52 119.799 146.683 121.066 147.265C121.476 147.47 121.921 147.607 122.4 147.71V147.778C122.126 148.565 122.845 149.524 123.872 150.037C124.556 150.379 125.377 150.584 126.198 150.619C121.271 154.177 115.385 154.759 115.385 154.759C113.879 155.683 112.203 156.607 110.663 157.531C110.218 157.805 109.602 157.873 109.02 157.77C105.496 157.12 102.211 155.615 99.9521 153.561C99.8152 153.425 99.6783 153.288 99.5415 153.151C99.6441 150.413 99.3019 147.607 97.8305 145.451L100.979 143.98L101.081 143.912Z" fill="#FF788F"/>
<path d="M126.712 88.373C126.883 88.9547 127.054 89.776 126.609 90.5288C126.37 90.9737 125.925 91.3501 125.343 91.6239C124.864 91.8292 124.316 91.9661 123.735 92.0003C122.195 92.0687 120.518 91.4528 119.012 90.3235C115.283 87.4491 114.119 83.5823 116.07 80.6394C116.241 80.3656 116.788 80.263 117.301 80.3998C117.815 80.5367 118.054 80.9131 117.883 81.1869C117.883 81.2211 117.849 81.2553 117.849 81.2553C116.241 83.7876 117.267 87.1753 120.518 89.6391C121.1 90.084 122.263 90.8368 123.358 90.8026C123.974 90.7684 124.556 90.4604 124.796 90.0155C125.035 89.6049 125.035 89.0916 124.83 88.4072C124.145 86.0461 121.818 83.7191 118.602 82.145C118.26 81.9739 118.088 81.7002 118.225 81.4949C118.26 81.4606 118.294 81.3922 118.362 81.358C118.67 81.1185 119.252 81.1185 119.697 81.3238C123.29 83.0347 125.925 85.7039 126.712 88.373Z" fill="black"/>
<path d="M118.567 72.0503L79.6598 87.9624L34.3189 106.578L26.551 99.597C24.4294 97.6123 25.1138 94.1219 27.8172 93.0953L103.579 64.0087C105.359 63.3243 107.343 63.598 108.883 64.7615L118.567 72.0503ZM84.0741 82.6241C86.1273 81.8028 86.5037 80.0576 84.8954 78.7573C83.8688 77.936 82.2605 77.457 80.7206 77.457C79.8651 77.457 79.0096 77.5938 78.291 77.9018L64.0557 83.5138C61.8998 84.3693 61.4208 86.1487 63.0291 87.5175C64.0557 88.373 65.664 88.8521 67.2723 88.8521C68.162 88.8521 69.0859 88.7152 69.873 88.373L84.0741 82.6241Z" fill="#FF788F"/>
<path d="M97.8303 163.861L106.591 171.766C103.887 172.929 101.766 175.941 100.842 177.857C99.8835 179.91 99.0622 181.997 98.4121 184.153C96.4273 182.305 94.4426 180.458 92.4236 178.61C94.819 173.956 96.6327 168.96 97.8303 163.861Z" fill="black"/>
<path d="M92.4579 178.644C94.4426 180.492 96.4616 182.34 98.4463 184.188C95.9483 192.503 95.8798 201.503 98.3437 209.818C98.8227 211.427 99.4045 212.967 100.055 214.438L99.1649 213.788C89.0359 213.685 79.1465 208.621 72.8843 200.682C66.6221 192.743 63.953 182.101 65.4587 172.074C66.1773 167.147 67.8882 162.424 70.3521 158.113C72.7132 154.006 75.793 150.311 79.386 147.197C79.694 146.923 80.0362 146.649 80.3442 146.375C82.7053 144.459 85.3402 142.782 88.3173 142.132C91.2944 141.516 94.6479 142.098 96.8038 144.219C97.1802 144.596 97.4882 144.972 97.7619 145.417C99.2334 147.573 99.5756 150.379 99.4729 153.117C99.4387 153.869 99.3702 154.622 99.3018 155.375C98.9938 158.215 98.5148 161.055 97.8646 163.827C96.6327 168.96 94.819 173.956 92.4579 178.644Z" fill="#FF788F"/>
<path d="M96.0851 143.672C94.6821 143.398 93.2107 143.432 91.8077 143.706C88.8306 144.356 86.1957 146.033 83.8345 147.949C83.4923 148.223 83.1843 148.497 82.8764 148.771C79.2833 151.851 76.2036 155.58 73.8424 159.687C71.3786 163.998 69.6676 168.721 68.949 173.648C67.4434 183.675 70.1125 194.283 76.3747 202.256C78.0172 204.343 79.9335 206.26 82.0209 207.902C83.1843 208.929 84.382 209.887 85.6482 210.742C80.6521 208.45 76.2036 204.993 72.8158 200.716C66.5536 192.777 63.8845 182.135 65.3902 172.108C66.1088 167.181 67.8198 162.459 70.2836 158.147C72.6447 154.041 75.7245 150.345 79.3175 147.231C79.6255 146.957 79.9677 146.683 80.2757 146.41C82.6368 144.493 85.2717 142.817 88.2488 142.166C90.9522 141.619 93.9293 142.029 96.0851 143.672Z" fill="white"/>
<path d="M86.6748 107.399C89.207 109.315 90.6442 111.779 90.61 114.175C90.5758 116.604 88.8306 119.376 85.9219 120.882C82.8764 122.456 78.9411 123.414 74.869 123.414C70.7627 123.414 66.5879 122.387 63.5766 120.505C60.5995 118.623 58.8885 115.92 59.3333 113.388C61.3181 114.209 63.7819 114.38 66.0404 114.072C63.8845 113.251 62.9606 111.3 62.858 109.76C62.7895 108.22 63.3028 106.715 63.1659 105.209C63.0291 103.703 62.0025 102.061 59.8466 101.377C63.7134 100.487 68.1278 100.59 71.9604 101.821C75.793 103.053 78.8385 105.312 80.1046 107.878C81.1312 107.262 81.7471 106.236 81.3365 105.346C83.3212 105.449 85.2718 106.373 86.6748 107.399ZM86.3668 120.574C87.3934 119.205 87.6329 117.665 86.6405 116.228C85.614 114.791 83.6292 113.593 81.3365 113.08C79.9677 112.772 78.5305 112.703 77.1959 112.361C74.8348 111.745 72.8501 110.479 72.3368 108.905C71.0364 111.711 70.66 115.372 73.158 118.076C74.4926 119.479 76.6827 120.574 79.1465 121.053C81.6103 121.498 84.2452 121.327 86.3668 120.574Z" fill="#FF788F" stroke="black" stroke-width="1.2" stroke-linecap="round" stroke-linejoin="round"/>
<path d="M70.3521 158.112C67.8883 162.424 66.1773 167.146 65.4587 172.074C50.1968 168.139 33.8741 150.892 33.8741 150.892C21.3497 137.957 24.0188 127.862 26.688 125.467C29.4255 122.798 34.182 124.748 34.5585 124.919H34.5927C44.311 133.953 56.8696 145.622 70.3521 158.112Z" fill="#FF788F"/>
<path d="M65.5272 171.492C65.493 171.697 65.4587 171.869 65.4245 172.074C50.1626 168.139 33.8399 150.892 33.8399 150.892C21.3497 137.957 24.0189 127.862 26.688 125.467C29.4255 122.798 34.1821 124.748 34.5585 124.919H34.5927C35.0718 125.364 35.5851 125.843 36.0984 126.322C35.3113 126.528 34.5243 126.904 33.8741 127.554C31.205 129.95 28.5701 140.044 41.026 152.979C40.9918 152.945 52.6948 165.298 65.5272 171.492Z" fill="white"/>
<path d="M169.076 212.864C168.939 212.18 168.357 211.393 167.33 210.503L166.201 209.511C165.209 208.655 164.319 208.108 163.498 207.936C162.677 207.731 161.924 207.902 161.171 208.347C160.418 208.826 160.11 209.408 160.247 210.058C160.384 210.708 160.931 211.495 161.924 212.419L163.087 213.48C164.045 214.335 164.969 214.883 165.79 215.088C166.646 215.294 167.399 215.157 168.152 214.678C168.904 214.13 169.212 213.548 169.076 212.864Z" fill="black"/>
<path d="M167.467 213.993C167.022 214.266 166.543 214.335 165.962 214.164C165.38 213.993 164.73 213.548 164.011 212.898L162.642 211.666C161.958 211.05 161.547 210.502 161.445 210.092C161.308 209.647 161.479 209.305 161.924 209.031C162.369 208.723 162.848 208.689 163.395 208.86C163.943 209.031 164.559 209.441 165.277 210.092L166.68 211.358C167.365 212.008 167.809 212.555 167.912 212.966C168.049 213.343 167.912 213.685 167.467 213.993Z" fill="white"/>
<path d="M173.763 209.339C173.661 208.449 172.976 207.423 171.642 206.259L171.402 206.054C170.547 205.301 169.657 204.822 168.767 204.617C167.878 204.411 167.125 204.548 166.44 204.959C166.03 205.232 165.756 205.54 165.619 205.917C165.482 206.293 165.516 206.704 165.722 207.149C165.893 207.594 166.235 208.004 166.68 208.415C167.091 208.791 167.57 209.099 168.083 209.305C168.596 209.51 169.075 209.613 169.554 209.578C170.033 209.578 170.478 209.441 170.855 209.168C171.163 208.962 171.368 208.723 171.471 208.449C171.573 208.175 171.642 207.867 171.573 207.559C172.326 208.278 172.668 208.894 172.668 209.476C172.668 210.057 172.292 210.571 171.608 211.05L171.436 211.152L172.189 211.803L172.36 211.7C173.387 211.016 173.866 210.229 173.763 209.339Z" fill="black"/>
<path d="M170.855 207.662C170.786 207.97 170.615 208.244 170.307 208.415C169.931 208.654 169.486 208.723 168.973 208.586C168.459 208.483 167.946 208.21 167.501 207.799C167.022 207.388 166.749 206.978 166.714 206.567C166.646 206.156 166.817 205.848 167.193 205.575C167.57 205.335 168.049 205.301 168.631 205.438C169.212 205.575 169.794 205.917 170.376 206.43L170.718 206.738C170.855 207.046 170.923 207.354 170.855 207.662Z" fill="white"/>
<path d="M177.322 207.731C177.185 207.594 177.014 207.525 176.809 207.491C176.604 207.457 176.432 207.491 176.261 207.628C176.09 207.731 175.988 207.867 176.022 208.004C176.022 208.141 176.124 208.278 176.261 208.415C176.398 208.552 176.569 208.62 176.74 208.654C176.912 208.689 177.117 208.654 177.288 208.518C177.459 208.415 177.562 208.278 177.527 208.141C177.527 208.004 177.459 207.867 177.322 207.731Z" fill="black"/>
<path d="M173.216 204.104C173.079 203.967 172.908 203.898 172.703 203.864C172.532 203.83 172.326 203.864 172.155 204.001C171.984 204.104 171.916 204.24 171.916 204.377C171.916 204.514 172.018 204.651 172.155 204.788C172.292 204.925 172.463 204.993 172.634 205.027C172.805 205.062 173.011 205.027 173.182 204.891C173.353 204.788 173.456 204.651 173.421 204.514C173.421 204.377 173.353 204.24 173.216 204.104Z" fill="black"/>
<path d="M181.908 204.411C181.737 203.761 181.155 203.008 180.163 202.119L179.033 201.16C178.041 200.339 177.151 199.826 176.364 199.621C175.577 199.45 174.824 199.586 174.106 200.031C173.387 200.51 173.113 201.058 173.25 201.674C173.387 202.324 173.969 203.077 174.961 203.932L176.125 204.959C177.083 205.78 178.007 206.293 178.828 206.499C179.649 206.704 180.402 206.567 181.121 206.088C181.805 205.643 182.079 205.062 181.908 204.411Z" fill="black"/>
<path d="M180.368 205.472C179.957 205.746 179.444 205.815 178.896 205.609C178.349 205.438 177.699 205.027 176.946 204.377L175.577 203.18C174.893 202.564 174.482 202.05 174.345 201.64C174.208 201.229 174.345 200.887 174.79 200.613C175.235 200.339 175.714 200.271 176.227 200.442C176.775 200.613 177.391 200.99 178.109 201.64L179.512 202.872C180.197 203.488 180.642 204.035 180.778 204.446C180.95 204.856 180.813 205.199 180.368 205.472Z" fill="white"/>
<path d="M187.041 201.024C186.87 200.373 186.288 199.621 185.262 198.765L184.132 197.807C183.14 196.986 182.284 196.472 181.463 196.301C180.676 196.13 179.923 196.233 179.239 196.678C178.52 197.123 178.247 197.67 178.418 198.286C178.555 198.936 179.136 199.655 180.129 200.51L181.292 201.503C182.25 202.324 183.14 202.837 183.961 203.043C184.782 203.248 185.535 203.111 186.22 202.666C186.973 202.221 187.212 201.674 187.041 201.024Z" fill="black"/>
<path d="M185.535 202.085C185.124 202.358 184.645 202.393 184.098 202.221C183.55 202.05 182.9 201.64 182.147 201.024L180.778 199.826C180.094 199.21 179.683 198.731 179.547 198.32C179.41 197.91 179.547 197.568 179.991 197.294C180.402 197.02 180.881 196.952 181.429 197.123C181.942 197.294 182.592 197.67 183.311 198.286L184.714 199.518C185.398 200.134 185.843 200.647 185.98 201.058C186.082 201.469 185.946 201.811 185.535 202.085Z" fill="white"/>
<path d="M187.387 53.2802L187.383 53.2818L173.592 58.3121C173.443 58.3664 173.322 58.4776 173.255 58.6213L165.741 74.6637L157.891 65.8708L157.889 65.8676L157.139 65.0153C157.13 65.0057 157.121 64.9964 157.112 64.9874L157.061 64.9361L157.052 64.9268L157.016 64.8736C157.006 64.8587 156.996 64.8444 156.985 64.8305C156.984 64.8292 156.983 64.8278 156.982 64.8264C156.967 64.8038 156.918 64.7308 156.83 64.6647C156.804 64.6204 156.773 64.5793 156.736 64.5425L156.702 64.5083C156.539 64.3459 156.298 64.2905 156.081 64.3656L140.073 69.907C140.072 69.9073 140.071 69.9076 140.07 69.9079C138.399 70.4629 136.688 69.2364 136.688 67.4991V23.8691C136.688 21.7288 138.032 19.8351 140.049 19.132C140.049 19.1319 140.049 19.1318 140.05 19.1317L189.05 2.22785L189.05 2.22777C190.542 1.71249 192.121 2.82493 192.121 4.43244V19.9681V48.6783C192.121 50.4119 191.046 51.9643 189.404 52.5624C189.403 52.5626 189.403 52.5628 189.402 52.563L187.387 53.2802Z" stroke="white" stroke-width="1.2" stroke-linecap="round" stroke-linejoin="round"/>
<path d="M69.4624 138.026C71.1392 137.444 152.547 97.7491 152.547 97.7491" stroke="#FF788F" stroke-width="1.2" stroke-miterlimit="10" stroke-linecap="round" stroke-linejoin="round"/>
<path d="M109.978 171.39L152.479 147.949L190.942 126.733" stroke="#FF788F" stroke-width="1.2" stroke-miterlimit="10" stroke-linecap="round" stroke-linejoin="round"/>
<path d="M231.834 157.634L149.091 210.092" stroke="#FF788F" stroke-width="1.2" stroke-miterlimit="10" stroke-linecap="round" stroke-linejoin="round"/>
<path d="M125.069 208.86C136.738 219.673 147.072 229.221 154.601 236.133C159.357 240.479 168.768 244.962 180.368 236.133L248.294 189.081C248.294 189.081 255.275 185.283 255.275 177.994C255.275 170.705 250.142 166.496 245.727 163.314C243.264 161.534 211.918 137.889 179.17 113.148M117.233 181.382L149.091 210.126L162.779 222.445C165.38 224.875 169.349 225.149 172.258 223.13L242.682 173.99C245.454 172.074 245.522 168.002 242.853 165.983L231.834 157.633L190.976 126.767L175.098 114.756M157.064 96.4147C138.962 82.7269 122.366 70.2025 112.271 62.6058C109.876 60.7921 106.077 58.6705 100.568 60.2446C100.568 60.2446 42.3605 81.6318 21.555 89.4339C20.8022 89.7077 20.0835 90.0156 19.3992 90.392C16.2167 92.103 14.1978 94.4984 13.1712 99.1865C13.137 99.3918 13.1028 99.5629 13.0685 99.7682C12.6921 102.745 13.8898 105.722 16.0799 107.741C18.7148 110.171 25.3876 116.399 34.5584 124.92H34.5926C44.3452 133.954 56.8696 145.622 70.3521 158.113M79.3518 147.196L34.3189 106.578L26.551 99.5971C24.4294 97.6124 25.1138 94.122 27.8172 93.0954L103.579 64.0088C105.359 63.3244 107.343 63.5981 108.883 64.7616L118.602 72.1188L152.582 97.7835L154.293 99.0838M106.591 171.8L97.8304 163.896M98.4463 184.188C96.4616 182.34 94.4769 180.492 92.4579 178.644L98.4463 184.188Z" stroke="black" stroke-width="1.2" stroke-miterlimit="10" stroke-linecap="round" stroke-linejoin="round"/>
<path d="M125.069 208.86C136.738 219.673 147.072 229.221 154.601 236.133C159.357 240.479 168.768 244.962 180.368 236.133L248.294 189.081C248.294 189.081 255.275 185.283 255.275 177.994C255.275 170.705 250.142 166.496 245.727 163.314C243.264 161.534 211.918 137.889 179.17 113.148M117.233 181.382L149.091 210.126L162.779 222.445C165.38 224.875 169.349 225.149 172.258 223.13L242.682 173.99C245.454 172.074 245.522 168.002 242.853 165.983L231.834 157.633L190.976 126.767L175.098 114.756M157.064 96.4147C138.962 82.7269 122.366 70.2025 112.271 62.6058C109.876 60.7921 106.077 58.6705 100.568 60.2446C100.568 60.2446 42.3605 81.6318 21.555 89.4339C20.8022 89.7077 20.0835 90.0156 19.3992 90.392C16.2167 92.103 14.1978 94.4984 13.1712 99.1865C13.137 99.3918 13.1028 99.5629 13.0685 99.7682C12.6921 102.745 13.8898 105.722 16.0799 107.741C18.7148 110.171 25.3876 116.399 34.5584 124.92H34.5926C44.3452 133.954 56.8696 145.622 70.3521 158.113M79.3518 147.196L34.3189 106.578L26.551 99.5971C24.4294 97.6124 25.1138 94.122 27.8172 93.0954L103.579 64.0088C105.359 63.3244 107.343 63.5981 108.883 64.7616L118.602 72.1188L152.582 97.7835L154.293 99.0838M106.591 171.8L97.8304 163.896M98.4463 184.188C96.4616 182.34 94.4769 180.492 92.4579 178.644L98.4463 184.188Z" stroke="black" stroke-width="1.2" stroke-miterlimit="10" stroke-linecap="round" stroke-linejoin="round"/>
<path d="M164.798 116.673C165.311 116.638 165.825 116.604 166.304 116.57C168.939 116.33 172.018 115.749 175.064 114.756L190.942 126.767L231.834 157.633L242.853 165.949C245.522 168.002 245.453 172.04 242.682 173.956L172.224 223.095C169.315 225.114 165.345 224.841 162.745 222.411L149.057 210.092L117.199 181.347M106.591 171.8L97.8303 163.895M152.274 114.003C151.418 113.285 150.734 112.429 150.255 111.334C148.544 107.536 150.357 103.156 154.258 99.0152L152.547 97.7149L118.567 72.0502L108.849 64.693C107.343 63.5296 105.324 63.2558 103.545 63.9402L27.7829 93.0268C25.0795 94.0534 24.3951 97.578 26.5168 99.5285L34.2846 106.509L79.3518 147.162M105.906 113.764C104.982 112.977 103.305 112.771 102.21 113.285C101.081 113.798 100.91 114.859 101.868 115.646C102.792 116.433 104.469 116.638 105.598 116.125C106.693 115.577 106.83 114.551 105.906 113.764ZM143.787 145.348C142.761 144.493 141.015 144.253 139.886 144.869C138.757 145.485 138.688 146.649 139.715 147.539C140.742 148.428 142.521 148.634 143.65 148.018C144.78 147.402 144.848 146.204 143.787 145.348ZM185.159 179.842C183.995 178.884 182.147 178.644 181.018 179.329C179.889 180.013 179.923 181.382 181.086 182.374C182.25 183.366 184.132 183.606 185.227 182.887C186.391 182.169 186.356 180.8 185.159 179.842Z" stroke="black" stroke-width="1.2" stroke-miterlimit="10" stroke-linecap="round" stroke-linejoin="round"/>
<path d="M164.798 116.673C165.311 116.638 165.825 116.604 166.304 116.57C168.939 116.33 172.018 115.749 175.064 114.756L190.942 126.767L231.834 157.633L242.853 165.949C245.522 168.002 245.453 172.04 242.682 173.956L172.224 223.095C169.315 225.114 165.345 224.841 162.745 222.411L149.057 210.092L117.199 181.347M106.591 171.8L97.8303 163.895M152.274 114.003C151.418 113.285 150.734 112.429 150.255 111.334C148.544 107.536 150.357 103.156 154.258 99.0152L152.547 97.7149L118.567 72.0502L108.849 64.693C107.343 63.5296 105.324 63.2558 103.545 63.9402L27.7829 93.0268C25.0795 94.0534 24.3951 97.578 26.5168 99.5285L34.2846 106.509L79.3518 147.162M105.906 113.764C104.982 112.977 103.305 112.771 102.21 113.285C101.081 113.798 100.91 114.859 101.868 115.646C102.792 116.433 104.469 116.638 105.598 116.125C106.693 115.577 106.83 114.551 105.906 113.764ZM185.159 179.842C183.995 178.884 182.147 178.644 181.018 179.329C179.889 180.013 179.923 181.382 181.086 182.374C182.25 183.366 184.132 183.606 185.227 182.887C186.391 182.169 186.356 180.8 185.159 179.842Z" stroke="black" stroke-width="1.2" stroke-miterlimit="10" stroke-linecap="round" stroke-linejoin="round"/>
<path d="M183.687 110.41C186.493 114.654 191.044 119.581 195.014 122.627" stroke="black" stroke-width="1.2" stroke-miterlimit="10" stroke-linecap="round" stroke-linejoin="round"/>
<path d="M192.413 122.935C201.584 121.669 210.96 121.943 220.028 123.722" stroke="black" stroke-width="1.2" stroke-miterlimit="10" stroke-linecap="round" stroke-linejoin="round"/>
<path d="M107.172 150.14C102.895 147.915 100.294 144.22 100.568 140.763C100.739 138.539 102.005 136.246 100.568 134.159C99.9521 133.269 98.9255 132.516 98.1727 131.695C97.454 130.84 97.1118 129.745 97.9331 129.06C98.4806 128.581 99.473 128.41 100.431 128.479C101.389 128.547 102.279 128.821 103.1 129.197C106.625 130.669 109.123 133.372 109.431 136.075C109.465 136.486 110.423 137.205 111.484 136.76" stroke="black" stroke-width="1.2" stroke-miterlimit="10" stroke-linecap="round" stroke-linejoin="round"/>
<path d="M111.758 136.657C114.564 135.048 117.644 133.679 120.963 132.619C121.853 132.345 122.777 132.071 123.803 132.105C125.275 132.174 126.712 132.892 127.396 133.816C128.115 134.74 128.183 135.801 127.738 136.725C127.328 137.649 126.472 138.436 125.48 139.086C123.735 140.215 121.511 141.037 119.115 141.481C118.431 141.618 117.746 141.721 117.028 141.653C116.309 141.618 115.556 141.413 115.043 141.037C114.324 140.489 114.256 139.668 114.598 139.052C114.94 138.436 115.659 137.957 116.343 137.512C117.986 136.451 119.765 135.493 121.613 134.638" stroke="black" stroke-width="1.2" stroke-miterlimit="10" stroke-linecap="round" stroke-linejoin="round"/>
<path d="M116.206 141.687C116.138 142.714 117.199 143.774 118.602 144.288C120.005 144.835 121.647 144.869 123.084 144.664C124.522 144.425 125.788 143.946 126.985 143.398C128.217 142.851 129.415 142.235 130.27 141.413C131.126 140.592 131.605 139.565 131.297 138.505C130.989 137.444 129.791 136.417 128.286 136.109" stroke="black" stroke-width="1.2" stroke-miterlimit="10" stroke-linecap="round" stroke-linejoin="round"/>
<path d="M119.423 144.596C118.944 145.486 119.731 146.649 120.997 147.231C122.263 147.847 123.837 147.949 125.206 147.744C126.575 147.539 127.773 147.06 128.936 146.546C130.1 146.033 131.263 145.486 132.153 144.733C133.042 144.014 133.624 143.09 133.556 142.098C133.487 141.106 132.7 140.045 131.4 139.497" stroke="black" stroke-width="1.2" stroke-miterlimit="10" stroke-linecap="round" stroke-linejoin="round"/>
<path d="M122.297 147.744C122.058 148.565 122.742 149.489 123.769 150.002C124.829 150.515 126.164 150.687 127.328 150.584C128.525 150.481 129.586 150.105 130.578 149.694C132.187 149.01 133.692 148.154 134.411 146.922C135.095 145.725 134.822 144.116 133.35 143.09" stroke="black" stroke-width="1.2" stroke-miterlimit="10" stroke-linecap="round" stroke-linejoin="round"/>
<path d="M126.13 150.584C121.202 154.143 115.316 154.725 115.316 154.725C113.811 155.649 112.134 156.573 110.594 157.497C110.149 157.771 109.533 157.839 108.952 157.736C105.427 157.086 102.142 155.581 99.8835 153.527C99.7466 153.39 99.6097 153.254 99.4728 153.117" stroke="black" stroke-width="1.2" stroke-miterlimit="10" stroke-linecap="round" stroke-linejoin="round"/>
<path d="M100.876 143.98L97.7278 145.417" stroke="black" stroke-width="1.2" stroke-miterlimit="10" stroke-linecap="round" stroke-linejoin="round"/>
<path d="M164.798 116.673C165.448 117.015 165.79 117.357 165.825 117.699C165.859 117.905 165.722 118.11 165.482 118.315C164.079 119.376 158.57 119.787 151.829 119.273C144.951 118.726 139.133 117.391 137.696 116.057C137.491 115.851 137.354 115.68 137.354 115.475C137.286 114.004 143.582 113.319 151.418 113.935C151.692 113.969 152 113.969 152.274 114.004" stroke="black" stroke-width="1.2" stroke-miterlimit="10" stroke-linecap="round" stroke-linejoin="round"/>
<path d="M159.289 129.402L158.194 131.353C156.688 131.353 155.045 131.284 153.334 131.148C150.665 130.942 148.167 130.634 146.011 130.224L144.745 128.102C147.106 128.581 149.947 128.992 152.992 129.197C155.285 129.368 157.407 129.437 159.289 129.402Z" stroke="black" stroke-width="1.2" stroke-miterlimit="10" stroke-linecap="round" stroke-linejoin="round"/>
<path d="M137.354 115.441L149.604 136.349C150.665 138.128 154.224 138.471 155.114 136.862L165.825 117.699" stroke="black" stroke-width="1.2" stroke-miterlimit="10" stroke-linecap="round" stroke-linejoin="round"/>
<path d="M163.258 122.284L162.06 124.406C159.562 124.646 156.277 124.646 152.616 124.338C148.202 123.995 144.198 123.311 141.494 122.524L140.091 120.129C142.692 121.087 147.278 121.977 152.445 122.353C156.825 122.729 160.692 122.661 163.258 122.284Z" stroke="black" stroke-width="1.2" stroke-miterlimit="10" stroke-linecap="round" stroke-linejoin="round"/>
<path d="M130.852 112.395C131.468 112.703 132.255 112.84 132.974 112.806C133.693 112.737 134.308 112.498 134.616 112.087" stroke="black" stroke-width="1.2" stroke-miterlimit="10" stroke-linecap="round" stroke-linejoin="round"/>
<path d="M130.784 118.383C130.031 117.494 129.963 116.398 130.647 115.611" stroke="black" stroke-width="1.2" stroke-miterlimit="10" stroke-linecap="round" stroke-linejoin="round"/>
<path d="M134.548 118.486C134.137 118.965 133.727 119.444 133.59 119.992C133.453 120.539 133.658 121.189 134.309 121.668C134.959 122.148 135.917 122.319 136.772 122.592C137.628 122.866 138.552 123.379 138.518 123.961C138.518 124.475 137.765 124.817 137.012 124.954C136.259 125.09 135.438 125.09 134.788 125.33C134.137 125.57 133.761 126.22 134.309 126.665" stroke="black" stroke-width="1.2" stroke-miterlimit="10" stroke-linecap="round" stroke-linejoin="round"/>
<path d="M143.308 169.542C143.308 169.542 138.004 167.147 131.639 170.637C125.172 174.23 126.438 186.036 166.338 189.595C168.254 162.048 153.3 158.626 147.243 161.98C141.118 165.401 143.308 169.542 143.308 169.542Z" fill="#FF788F" stroke="black" stroke-width="1.2" stroke-miterlimit="10" stroke-linecap="round" stroke-linejoin="round"/>
<path d="M205.382 144.219C213.664 150.55 214.519 159.447 206.957 164.135C199.223 168.926 185.912 167.283 177.596 160.473C169.452 153.835 169.452 144.972 177.22 140.66C184.817 136.451 197.307 138.025 205.382 144.219Z" stroke="black" stroke-width="1.2" stroke-miterlimit="10" stroke-linecap="round" stroke-linejoin="round"/>
<path d="M204.287 151.747C206.238 155.58 205.93 159.07 202.918 160.918C199.839 162.8 194.706 162.561 189.299 160.678C192.516 160.028 195.595 158.865 198.299 157.257C200.968 155.682 202.953 153.766 204.287 151.747Z" stroke="black" stroke-width="1.2" stroke-miterlimit="10" stroke-linecap="round" stroke-linejoin="round"/>
<path d="M199.326 151.097C197.17 150.96 194.98 150.516 192.892 149.831C191.284 149.318 189.641 148.565 188.82 147.47C187.999 146.375 188.204 145.109 189.334 144.459C190.429 143.809 192.345 143.843 193.816 144.561C193.679 143.501 195.048 142.611 196.52 142.542C198.231 142.44 200.147 143.398 201.105 144.561C202.063 145.725 202.132 147.059 201.721 148.189C201.242 149.249 200.215 150.173 199.326 151.097Z" stroke="black" stroke-width="1.2" stroke-miterlimit="10" stroke-linecap="round" stroke-linejoin="round"/>
<path d="M189.094 157.12C189.196 155.615 188.888 154.041 188.204 152.535C187.691 151.371 186.835 150.174 185.364 149.421C183.892 148.702 181.942 148.634 180.813 149.284C179.649 149.934 179.375 151.235 180.162 152.364C178.588 152.09 176.98 152.911 176.569 153.904C176.125 155.067 177.22 156.573 178.828 157.428C180.47 158.25 182.455 158.489 184.235 158.352C186.014 158.215 187.554 157.634 189.094 157.12Z" stroke="black" stroke-width="1.2" stroke-miterlimit="10" stroke-linecap="round" stroke-linejoin="round"/>
<path d="M185.912 193.495L192.105 198.765" stroke="black" stroke-width="1.2" stroke-miterlimit="10" stroke-linecap="round" stroke-linejoin="round"/>
<path d="M191.079 191.716L232.074 165.196" stroke="black" stroke-width="1.2" stroke-miterlimit="10" stroke-linecap="round" stroke-linejoin="round"/>
<path d="M195.185 195.172L206.033 188.054" stroke="black" stroke-width="1.2" stroke-miterlimit="10" stroke-linecap="round" stroke-linejoin="round"/>
<path d="M193.645 181.861H193.611L152.479 147.949L114.187 116.433L79.694 88.0309" stroke="#FF788F" stroke-width="1.2" stroke-miterlimit="10" stroke-linecap="round" stroke-linejoin="round"/>
<path d="M143.65 148.018C142.521 148.634 140.742 148.394 139.715 147.539C138.689 146.683 138.757 145.486 139.886 144.87C141.016 144.254 142.761 144.493 143.787 145.349C144.848 146.204 144.78 147.402 143.65 148.018Z" fill="#FF788F" stroke="black" stroke-width="1.2" stroke-miterlimit="10" stroke-linecap="round" stroke-linejoin="round"/>
<path d="M105.564 116.125C104.435 116.638 102.758 116.433 101.834 115.646C100.91 114.859 101.081 113.798 102.176 113.285C103.305 112.772 104.948 112.977 105.872 113.764C106.83 114.551 106.693 115.578 105.564 116.125Z" fill="#FF788F" stroke="black" stroke-width="1.2" stroke-miterlimit="10" stroke-linecap="round" stroke-linejoin="round"/>
<path d="M185.261 182.887C184.132 183.606 182.284 183.366 181.121 182.374C179.957 181.382 179.923 180.013 181.052 179.328C182.181 178.644 184.029 178.849 185.193 179.842C186.356 180.8 186.39 182.169 185.261 182.887Z" fill="#FF788F" stroke="black" stroke-width="1.2" stroke-miterlimit="10" stroke-linecap="round" stroke-linejoin="round"/>
<path d="M189.847 101.548C188.581 106.954 184.235 110.684 179.136 113.114C177.801 113.764 176.433 114.277 175.03 114.722C171.984 115.715 168.904 116.296 166.269 116.536C165.79 116.57 165.277 116.604 164.764 116.638C160.349 116.878 155.319 116.502 152.239 113.969C151.384 113.251 150.7 112.395 150.221 111.3C148.51 107.502 150.323 103.122 154.224 98.9812C155.045 98.0915 156.004 97.236 156.996 96.3805C167.33 87.7229 186.048 81.1528 198.299 85.2933C212.705 90.1525 225.059 99.5971 236.214 109.931C271.885 143.04 292.139 178.135 317.554 225.657L307.973 234.706L282.479 260.542L252.879 290.485C233.491 275.992 211.503 264.988 188.273 258.17C171.163 253.174 153.334 250.403 136.772 243.764C120.21 237.125 103.34 226.894 98.2752 209.784C95.1955 199.313 96.0852 187.712 100.773 177.857C101.937 175.428 105.085 171.287 108.781 171.287C113.811 171.287 115.83 177.515 116.514 179.431C120.586 191.1 121.613 203.967 127.841 214.643" stroke="black" stroke-width="1.2" stroke-miterlimit="10" stroke-linecap="round" stroke-linejoin="round"/>
<path d="M283.848 167.113C285.217 181.006 284.224 195.173 280.289 208.552C275.396 225.286 265.814 240.787 252.366 251.874C241.826 260.566 228.925 266.418 215.443 268.266" stroke="black" stroke-width="1.2" stroke-miterlimit="10" stroke-linecap="round" stroke-linejoin="round"/>
<path d="M99.1649 213.788C89.0359 213.685 79.1465 208.621 72.8843 200.682C66.6221 192.743 63.953 182.101 65.4587 172.074C66.1773 167.147 67.8882 162.424 70.352 158.113C72.7132 154.006 75.793 150.311 79.386 147.197C79.694 146.923 80.0362 146.649 80.3442 146.375C82.7053 144.459 85.3402 142.782 88.3173 142.132C91.2944 141.516 94.6479 142.098 96.8038 144.219C97.1802 144.596 97.4882 144.972 97.7619 145.417C99.2333 147.573 99.5755 150.379 99.4729 153.117C99.4387 153.869 99.3702 154.656 99.3018 155.375C98.9938 158.215 98.5147 161.055 97.8646 163.827C96.6669 168.926 94.8532 173.888 92.4921 178.576C91.1233 181.348 89.515 184.017 87.7698 186.583" stroke="black" stroke-width="1.2" stroke-miterlimit="10" stroke-linecap="round" stroke-linejoin="round"/>
<path d="M34.5585 124.92C34.5585 124.92 29.494 122.661 26.6538 125.467C24.0189 127.862 21.3497 137.957 33.8057 150.892C33.8057 150.892 50.1284 168.139 65.3903 172.074" stroke="black" stroke-width="1.2" stroke-miterlimit="10" stroke-linecap="round" stroke-linejoin="round"/>
<path d="M112.887 102.335C109.294 96.5174 106.83 92.1031 104.88 87.9283C104.743 87.6545 104.332 87.4492 103.887 87.415C103.442 87.3808 103.066 87.5519 102.963 87.8256L100.944 93.9509C100.842 94.2589 101.184 94.6353 101.731 94.7037C102.279 94.8064 102.792 94.6353 102.895 94.2931L104.127 90.4947C105.906 94.0194 108.062 97.852 110.971 102.608C111.176 102.951 111.758 103.156 112.305 103.053C112.408 103.053 112.511 103.019 112.579 102.985C112.921 102.882 113.058 102.608 112.887 102.335Z" fill="black"/>
<path d="M131.981 91.7607C131.708 91.4527 131.092 91.3158 130.613 91.4527C124.624 93.1979 120.039 96.3461 115.898 99.1863C115.556 99.4259 115.624 99.8365 116.069 100.076C116.446 100.281 116.993 100.316 117.37 100.144C117.404 100.144 117.472 100.11 117.507 100.076C121.716 97.1674 125.993 94.1903 131.708 92.5135C132.152 92.4109 132.255 92.0687 131.981 91.7607Z" fill="black"/>
<path d="M133.966 94.1905C133.59 93.9168 133.008 93.8483 132.597 94.0194C125.924 97.1676 120.347 101.206 116.035 105.996C115.761 106.27 115.967 106.681 116.48 106.886C116.856 107.057 117.301 107.023 117.609 106.886C117.712 106.852 117.78 106.783 117.849 106.715C122.023 102.027 127.43 98.0916 133.932 95.0118C134.308 94.8407 134.343 94.4643 133.966 94.1905Z" fill="black"/>
<path d="M118.499 92.5136C117.849 89.913 115.59 87.3465 112.305 85.4986C111.895 85.2591 111.279 85.2591 110.936 85.4644C110.594 85.6697 110.663 86.0462 111.073 86.2857C113.982 87.9624 115.967 90.2209 116.548 92.5479C116.754 93.3691 116.685 93.9851 116.343 94.4299C116.035 94.8406 115.248 95.217 114.427 95.1143C113.708 95.0117 112.99 94.5668 112.271 93.814C109.67 91.0764 108.986 87.8256 110.389 85.1564C110.56 84.8485 110.252 84.5063 109.739 84.4036C109.225 84.2667 108.678 84.4036 108.507 84.6774C106.899 87.6545 107.651 91.2817 110.56 94.3273C111.655 95.4907 112.853 96.1409 114.222 96.312C115.18 96.4489 116.172 96.312 116.925 95.9698C117.404 95.7645 117.815 95.4565 118.123 95.0801C118.807 94.1562 118.67 93.1638 118.499 92.5136Z" fill="black"/>
<path d="M183.174 126.87C182.182 127.417 180.505 127.212 179.478 126.391C178.452 125.604 178.417 124.543 179.41 123.995C180.402 123.482 182.045 123.687 183.071 124.474C184.098 125.261 184.166 126.322 183.174 126.87Z" fill="black" stroke="black" stroke-width="1.2" stroke-miterlimit="10" stroke-linecap="round" stroke-linejoin="round"/>
<path d="M224.408 158.557C223.416 159.173 221.671 158.968 220.507 158.078C219.344 157.188 219.207 155.991 220.199 155.375C221.192 154.759 222.903 154.998 224.066 155.854C225.264 156.743 225.401 157.941 224.408 158.557Z" fill="#FF788F" stroke="black" stroke-width="1.2" stroke-miterlimit="10" stroke-linecap="round" stroke-linejoin="round"/>
<path d="M145.088 98.1257C144.095 98.6048 142.521 98.3994 141.597 97.6808C140.673 96.9622 140.742 96.0383 141.734 95.5592C142.726 95.1144 144.301 95.2855 145.225 96.0041C146.148 96.6885 146.08 97.6466 145.088 98.1257Z" fill="#FF788F" stroke="black" stroke-width="1.2" stroke-miterlimit="10" stroke-linecap="round" stroke-linejoin="round"/>
<mask id="mask0" mask-type="alpha" maskUnits="userSpaceOnUse" x="68" y="83" width="6" height="4">
<path d="M68.8463 83.0071L68.0935 83.2808L69.7703 86.8397L70.4547 86.5659L69.9071 85.4024L71.6181 84.7181L73.2607 85.4367L73.9793 85.1287L68.8463 83.0071ZM69.6676 84.9576L69.0174 83.623L70.9337 84.4443L69.6676 84.9576Z" fill="black"/>
</mask>
<g mask="url(#mask0)">
<rect x="63.6449" y="77.8057" width="20.5317" height="10.6081" fill="black"/>
</g>
<mask id="mask1" mask-type="alpha" maskUnits="userSpaceOnUse" x="71" y="81" width="5" height="4">
<path d="M75.5534 81.604C74.9375 81.0907 73.9109 80.988 72.9869 81.3302L71.276 82.0146L74.6979 84.8548L75.3823 84.5811L74.082 83.5203L75.1086 83.1096C76.0325 82.7332 76.1694 82.083 75.5534 81.604ZM74.6637 82.699L73.6371 83.1096L72.4394 82.1173L73.466 81.7066C73.9793 81.5013 74.5268 81.5697 74.9032 81.8777C75.2454 82.1857 75.177 82.4937 74.6637 82.699Z" fill="black"/>
</mask>
<g mask="url(#mask1)">
<rect x="63.6449" y="77.8056" width="20.5317" height="10.6081" fill="black"/>
</g>
<mask id="mask2" mask-type="alpha" maskUnits="userSpaceOnUse" x="75" y="79" width="8" height="5">
<path d="M81.5076 82.0832L82.2604 81.7752L79.4202 81.0566C79.8308 80.7486 79.8993 80.338 79.4202 79.9615C78.8384 79.4825 77.8461 79.3798 77.0248 79.722L75.3481 80.4064L78.77 83.2124L79.4544 82.9386L78.0172 81.741L78.8042 81.433L81.5076 82.0832ZM78.5647 80.9539L77.5723 81.3645L76.5115 80.5091L77.5039 80.0984C77.9487 79.9273 78.462 79.9615 78.77 80.2353C79.1122 80.4748 79.0095 80.7828 78.5647 80.9539Z" fill="#C4C4C4"/>
</mask>
<g mask="url(#mask2)">
<rect x="59.1964" y="74.3839" width="30.4554" height="17.1098" fill="black"/>
</g>
<path d="M296.578 69.7575C329.292 102.471 349.105 143.261 355.914 185.728C356.085 186.754 355.743 187.815 354.99 188.568L348.386 195.172L249.8 293.793C248.704 294.854 247.267 295.47 245.727 295.47H74.1163C72.3027 295.47 70.8654 294.032 70.8654 292.219" stroke="white" stroke-width="2" stroke-miterlimit="10" stroke-linecap="round" stroke-linejoin="round"/>
</g>
<defs>
<clipPath id="clip0">
<rect width="368" height="297.99" fill="white"/>
</clipPath>
</defs>
</svg>
